<svg width="23" height="23" viewBox="0 0 23 23" fill="none" xmlns="http://www.w3.org/2000/svg">
<g clip-path="url(#clip0_35_876)">
<path d="M17.6205 13.9713C18.73 12.4573 19.2269 10.5802 19.0119 8.71558C18.7968 6.85092 17.8857 5.13622 16.4607 3.91452C15.0358 2.69282 13.2021 2.05423 11.3265 2.1265C9.45097 2.19877 7.67186 2.97658 6.34513 4.30431C5.0184 5.63203 4.2419 7.41177 4.17097 9.28745C4.10005 11.1631 4.73993 12.9964 5.9626 14.4206C7.18527 15.8447 8.90056 16.7547 10.7653 16.9684C12.63 17.1821 14.5067 16.6838 16.0199 15.5732H16.0187C16.0531 15.6191 16.0898 15.6626 16.131 15.705L20.5423 20.1165C20.7572 20.3315 21.0486 20.4523 21.3526 20.4524C21.6565 20.4525 21.948 20.3319 22.163 20.117C22.378 19.9022 22.4989 19.6107 22.499 19.3068C22.4991 19.0028 22.3784 18.7113 22.1636 18.4962L17.7523 14.0848C17.7113 14.0433 17.6673 14.0062 17.6205 13.9713ZM17.9162 9.56677C17.9162 10.3944 17.7532 11.2139 17.4365 11.9785C17.1198 12.7431 16.6556 13.4378 16.0704 14.023C15.4852 14.6082 14.7905 15.0724 14.0259 15.3891C13.2614 15.7058 12.4419 15.8688 11.6143 15.8688C10.7867 15.8688 9.96728 15.7058 9.2027 15.3891C8.43813 15.0724 7.74342 14.6082 7.15824 14.023C6.57306 13.4378 6.10887 12.7431 5.79217 11.9785C5.47547 11.2139 5.31247 10.3944 5.31247 9.56677C5.31247 7.89535 5.97641 6.29239 7.15824 5.11052C8.34006 3.92865 9.94296 3.26468 11.6143 3.26468C13.2857 3.26468 14.8886 3.92865 16.0704 5.11052C17.2522 6.29239 17.9162 7.89535 17.9162 9.56677Z" fill="#ECA457"/>
</g>
<defs>
<clipPath id="clip0_35_876">
<rect width="22" height="22" fill="white" transform="translate(0.5 0.285645)"/>
</clipPath>
</defs>
</svg>
