<svg width="99" height="86" viewBox="0 0 99 86" fill="none" xmlns="http://www.w3.org/2000/svg">
<g clip-path="url(#clip0_76_155)">
<rect width="98.0151" height="85.4902" transform="translate(0.984863)" fill="#350503"/>
<path d="M49.9924 0C36.693 0 35.0206 0.0534314 29.7952 0.256471C24.5697 0.470196 21.0106 1.18618 17.8925 2.24412C14.6218 3.31712 11.6593 5.00025 9.21201 7.17583C6.71921 9.31147 4.78973 11.8951 3.55776 14.7471C2.34482 17.4614 1.51782 20.5711 1.27891 25.1127C1.04612 29.6811 0.984863 31.1345 0.984863 42.7504C0.984863 54.3557 1.04612 55.8091 1.27891 60.3668C1.52395 64.9191 2.34482 68.0235 3.55776 70.7431C4.81358 73.5536 6.48596 75.9367 9.21201 78.3144C11.9319 80.6921 14.6641 82.1561 17.8863 83.2461C21.0106 84.304 24.5636 85.0253 29.7829 85.2337C35.0145 85.4368 36.6807 85.4902 49.9924 85.4902C63.3041 85.4902 64.9642 85.4368 70.1958 85.2337C75.409 85.02 78.9804 84.304 82.0985 83.2461C85.3671 82.1725 88.3275 80.4894 90.7728 78.3144C93.4989 75.9367 95.1713 73.5536 96.4271 70.7431C97.6339 68.0235 98.4609 64.9191 98.7059 60.3668C98.9387 55.8091 99 54.3557 99 42.7451C99 31.1345 98.9387 29.6811 98.7059 25.1181C98.4609 20.5711 97.6339 17.4614 96.4271 14.7471C95.1953 11.895 93.2658 9.31136 90.7728 7.17583C88.3263 4.99944 85.3636 3.31619 82.0924 2.24412C78.9681 1.18618 75.4028 0.464853 70.1897 0.256471C64.9581 0.0534314 63.298 0 49.9802 0H49.9986H49.9924ZM45.6001 7.69946C45.6001 7.70241 45.6025 7.7048 45.6055 7.7048H49.9986C63.0836 7.7048 64.6334 7.74221 69.7976 7.95059C74.5758 8.1376 77.1732 8.83755 78.9007 9.41995C81.1857 10.1947 82.8214 11.1244 84.5366 12.6205C86.2519 14.1166 87.3117 15.5378 88.1999 17.5362C88.8738 19.0376 89.6702 21.3031 89.8846 25.4707C90.1235 29.975 90.1725 31.3268 90.1725 42.7344C90.1725 54.142 90.1235 55.4992 89.8846 60.0034C89.6702 64.1711 88.8677 66.4312 88.1999 67.938C87.4142 69.794 86.1602 71.4721 84.5305 72.8483C82.8152 74.3444 81.1857 75.2688 78.8946 76.0435C77.1794 76.6313 74.582 77.3259 69.7976 77.5182C64.6334 77.7213 63.0836 77.7694 49.9986 77.7694C36.9135 77.7694 35.3575 77.7213 30.1934 77.5182C25.4151 77.3259 22.8239 76.6313 21.0963 76.0435C18.9676 75.3592 17.0417 74.2674 15.4605 72.8483C13.8294 71.47 12.5735 69.7902 11.7849 67.9326C11.1172 66.4312 10.3147 64.1657 10.1003 59.9981C9.86748 55.4938 9.81848 54.142 9.81848 42.7237C9.81848 31.3108 9.86748 29.9643 10.1003 25.46C10.3208 21.2924 11.1172 19.0269 11.791 17.5201C12.6793 15.5272 13.7452 14.1005 15.4605 12.6045C17.1757 11.1084 18.8052 10.184 21.0963 9.40926C22.8239 8.82152 25.4151 8.12691 30.1934 7.93456C34.7134 7.75293 36.4656 7.69948 45.5946 7.69412C45.5976 7.69412 45.6001 7.69651 45.6001 7.69946ZM76.1563 14.8005C75.384 14.8005 74.6193 14.9332 73.9058 15.1909C73.1923 15.4487 72.544 15.8266 71.9979 16.3029C71.4518 16.7792 71.0186 17.3446 70.7231 17.967C70.4275 18.5893 70.2754 19.2563 70.2754 19.9299C70.2754 20.6035 70.4275 21.2705 70.7231 21.8928C71.0186 22.5152 71.4518 23.0806 71.9979 23.5569C72.544 24.0333 73.1923 24.4111 73.9058 24.6689C74.6193 24.9266 75.384 25.0593 76.1563 25.0593C77.716 25.0593 79.2119 24.5189 80.3148 23.5569C81.4176 22.595 82.0372 21.2903 82.0372 19.9299C82.0372 18.5695 81.4176 17.2648 80.3148 16.3029C79.2119 15.3409 77.716 14.8005 76.1563 14.8005ZM49.9986 20.7955C46.6603 20.7501 43.3451 21.2843 40.2459 22.3671C37.1467 23.4499 34.3254 25.0597 31.9463 27.1027C29.5672 29.1456 27.6778 31.581 26.3882 34.2669C25.0985 36.9529 24.4344 39.8358 24.4344 42.7478C24.4344 45.6598 25.0985 48.5427 26.3882 51.2286C27.6778 53.9146 29.5672 56.3499 31.9463 58.3929C34.3254 60.4358 37.1467 62.0456 40.2459 63.1284C43.3451 64.2112 46.6603 64.7455 49.9986 64.7001C56.6056 64.6101 62.9072 62.2578 67.5431 58.1507C72.179 54.0436 74.7774 48.5113 74.7774 42.7478C74.7774 36.9843 72.179 31.4519 67.5431 27.3448C62.9072 23.2378 56.6056 20.8854 49.9986 20.7955ZM49.9986 28.495C54.3316 28.495 58.4872 29.9963 61.5512 32.6687C64.6151 35.3411 66.3364 38.9657 66.3364 42.7451C66.3364 46.5245 64.6151 50.1491 61.5512 52.8215C58.4872 55.4939 54.3316 56.9952 49.9986 56.9952C45.6655 56.9952 41.5099 55.4939 38.4459 52.8215C35.382 50.1491 33.6607 46.5245 33.6607 42.7451C33.6607 38.9657 35.382 35.3411 38.4459 32.6687C41.5099 29.9963 45.6655 28.495 49.9986 28.495Z" fill="white"/>
</g>
<defs>
<clipPath id="clip0_76_155">
<rect width="98.0151" height="85.4902" fill="white" transform="translate(0.984863)"/>
</clipPath>
</defs>
</svg>
