<svg width="17" height="14" viewBox="0 0 17 14" fill="none" xmlns="http://www.w3.org/2000/svg">
<path fill-rule="evenodd" clip-rule="evenodd" d="M0 12.9794C0 12.7812 0.0787783 12.5911 0.219004 12.4509C0.35923 12.3107 0.549418 12.232 0.747727 12.232H15.7023C15.9006 12.232 16.0908 12.3107 16.231 12.4509C16.3712 12.5911 16.45 12.7812 16.45 12.9794C16.45 13.1776 16.3712 13.3678 16.231 13.5079C16.0908 13.6481 15.9006 13.7268 15.7023 13.7268H0.747727C0.549418 13.7268 0.35923 13.6481 0.219004 13.5079C0.0787783 13.3678 0 13.1776 0 12.9794ZM0 7.00002C0 6.80179 0.0787783 6.61168 0.219004 6.47151C0.35923 6.33134 0.549418 6.25259 0.747727 6.25259H15.7023C15.9006 6.25259 16.0908 6.33134 16.231 6.47151C16.3712 6.61168 16.45 6.80179 16.45 7.00002C16.45 7.19825 16.3712 7.38836 16.231 7.52853C16.0908 7.6687 15.9006 7.74744 15.7023 7.74744H0.747727C0.549418 7.74744 0.35923 7.6687 0.219004 7.52853C0.0787783 7.38836 0 7.19825 0 7.00002ZM0 1.02062C0 0.822389 0.0787783 0.632279 0.219004 0.492109C0.35923 0.35194 0.549418 0.273193 0.747727 0.273193H15.7023C15.9006 0.273193 16.0908 0.35194 16.231 0.492109C16.3712 0.632279 16.45 0.822389 16.45 1.02062C16.45 1.21885 16.3712 1.40896 16.231 1.54913C16.0908 1.6893 15.9006 1.76804 15.7023 1.76804H0.747727C0.549418 1.76804 0.35923 1.6893 0.219004 1.54913C0.0787783 1.40896 0 1.21885 0 1.02062Z" fill="white"/>
</svg>
