<svg xmlns="http://www.w3.org/2000/svg" xmlns:xlink="http://www.w3.org/1999/xlink" width="1366" zoomAndPan="magnify" viewBox="0 0 1024.5 576" height="768" preserveAspectRatio="xMidYMid meet" version="1.0"><defs><clipPath id="8de3875c06"><path d="M 392 229 L 616.605469 229 L 616.605469 349.535156 L 392 349.535156 Z M 392 229 " clip-rule="nonzero"/></clipPath><clipPath id="79fd8b0ed1"><path d="M 406 229 L 593 229 L 593 349.535156 L 406 349.535156 Z M 406 229 " clip-rule="nonzero"/></clipPath><clipPath id="85d42f586d"><path d="M 418.550781 227 L 588.871094 227 L 588.871094 245.9375 L 418.550781 245.9375 Z M 418.550781 227 " clip-rule="nonzero"/></clipPath><clipPath id="0b2297d8e6"><path d="M 588.746094 231.457031 C 588.746094 239.304688 550.664062 245.664062 503.6875 245.664062 C 456.710938 245.664062 418.628906 239.304688 418.628906 231.457031 C 418.628906 223.613281 456.710938 217.253906 503.6875 217.253906 C 550.664062 217.253906 588.746094 223.613281 588.746094 231.457031 " clip-rule="nonzero"/></clipPath><clipPath id="cf12a8619e"><path d="M 418.550781 227.476562 L 560.925781 227.476562 L 560.925781 245.9375 L 418.550781 245.9375 Z M 418.550781 227.476562 " clip-rule="nonzero"/></clipPath><clipPath id="860c6a8555"><path d="M 588.746094 231.457031 C 588.746094 239.304688 550.664062 245.664062 503.6875 245.664062 C 456.710938 245.664062 418.628906 239.304688 418.628906 231.457031 C 418.628906 223.613281 456.710938 217.253906 503.6875 217.253906 C 550.664062 217.253906 588.746094 223.613281 588.746094 231.457031 " clip-rule="nonzero"/></clipPath><clipPath id="611be677da"><path d="M 488.15625 236 L 588.871094 236 L 588.871094 245.9375 L 488.15625 245.9375 Z M 488.15625 236 " clip-rule="nonzero"/></clipPath><clipPath id="190384af71"><path d="M 588.746094 231.457031 C 588.746094 239.304688 550.664062 245.664062 503.6875 245.664062 C 456.710938 245.664062 418.628906 239.304688 418.628906 231.457031 C 418.628906 223.613281 456.710938 217.253906 503.6875 217.253906 C 550.664062 217.253906 588.746094 223.613281 588.746094 231.457031 " clip-rule="nonzero"/></clipPath><clipPath id="8af737067a"><path d="M 450 119.398438 L 500 119.398438 L 500 218 L 450 218 Z M 450 119.398438 " clip-rule="nonzero"/></clipPath></defs><path fill="#940000" d="M 585.898438 245.492188 C 589.785156 245.554688 592.800781 244.992188 594.820312 244.472656 C 596.960938 243.921875 607.414062 240.996094 610.585938 239.585938 C 610.765625 239.507812 611.277344 239.277344 611.917969 239.359375 C 612.980469 239.492188 613.734375 240.402344 614.1875 241.105469 C 614.738281 241.621094 615.417969 242.445312 615.507812 243.527344 C 615.546875 243.976562 615.46875 244.3125 615.421875 244.539062 C 615.238281 245.402344 615.027344 246.679688 614.917969 248.5 C 614.945312 248.738281 614.980469 249.4375 614.566406 250.167969 C 614.28125 250.660156 613.851562 251.066406 613.3125 251.3125 C 609.128906 252.203125 603.652344 253.800781 597.683594 256.808594 C 592.050781 259.644531 587.691406 262.867188 584.550781 265.570312 C 585 258.875 585.449219 252.183594 585.898438 245.492188 " fill-opacity="1" fill-rule="nonzero"/><path fill="#940000" d="M 422.460938 245.492188 C 418.570312 245.554688 415.558594 244.992188 413.535156 244.472656 C 411.398438 243.921875 400.941406 240.996094 397.769531 239.585938 C 397.59375 239.507812 397.078125 239.277344 396.4375 239.359375 C 395.378906 239.492188 394.621094 240.402344 394.167969 241.105469 C 393.617188 241.621094 392.9375 242.445312 392.847656 243.527344 C 392.808594 243.976562 392.886719 244.3125 392.933594 244.539062 C 393.121094 245.402344 393.332031 246.679688 393.4375 248.5 C 393.414062 248.738281 393.375 249.4375 393.792969 250.167969 C 394.074219 250.660156 394.503906 251.066406 395.042969 251.3125 C 399.226562 252.203125 404.703125 253.800781 410.671875 256.808594 C 416.304688 259.644531 420.664062 262.867188 423.808594 265.570312 C 423.359375 258.875 422.910156 252.183594 422.460938 245.492188 " fill-opacity="1" fill-rule="nonzero"/><g clip-path="url(#8de3875c06)"><path fill="#f71708" d="M 616.238281 250.921875 L 615.507812 243.527344 C 615.054688 242.824219 614.300781 241.914062 613.242188 241.78125 C 612.597656 241.699219 612.085938 241.929688 611.910156 242.007812 C 608.734375 243.417969 598.28125 246.34375 596.140625 246.894531 C 594.339844 247.359375 591.738281 247.855469 588.4375 247.914062 C 589 241.65625 589.566406 235.402344 590.132812 229.144531 C 572.1875 236.253906 542.125 245.609375 503.945312 245.664062 C 465.417969 245.714844 435.097656 236.277344 417.097656 229.144531 C 417.777344 235.394531 418.457031 241.644531 419.136719 247.890625 C 416.203125 247.777344 413.875 247.320312 412.214844 246.894531 C 410.074219 246.34375 399.621094 243.417969 396.445312 242.007812 C 396.273438 241.929688 395.757812 241.699219 395.117188 241.78125 C 394.054688 241.914062 393.300781 242.824219 392.847656 243.527344 L 392.117188 250.921875 C 391.996094 252.109375 392.644531 253.242188 393.722656 253.734375 C 397.90625 254.625 403.382812 256.222656 409.351562 259.230469 C 414.257812 261.703125 418.199219 264.464844 421.210938 266.925781 C 423.195312 285.160156 425.183594 303.398438 427.171875 321.636719 C 427.90625 328.386719 432.292969 334.195312 438.589844 336.722656 C 453.765625 342.824219 476.660156 349.550781 504.933594 349.386719 C 532.945312 349.222656 555.585938 342.363281 570.632812 336.164062 C 576.917969 333.574219 581.234375 327.691406 581.84375 320.917969 C 583.457031 303.046875 585.074219 285.175781 586.6875 267.304688 C 589.753906 264.753906 593.84375 261.828125 599.003906 259.230469 C 604.976562 256.222656 610.449219 254.625 614.636719 253.734375 C 615.710938 253.242188 616.359375 252.109375 616.238281 250.921875 " fill-opacity="1" fill-rule="nonzero"/></g><path fill="#ffb0ae" d="M 562.515625 251.542969 C 562.4375 272.25 562.363281 292.957031 562.289062 313.664062 C 560.941406 316.082031 558.464844 319.914062 554.59375 322.914062 C 550.382812 326.179688 546.5 326.925781 544.316406 327.113281 C 544.316406 302.351562 544.316406 277.589844 544.316406 252.828125 C 547.03125 253.03125 550.023438 253.082031 553.238281 252.863281 C 556.605469 252.636719 559.714844 252.152344 562.515625 251.542969 " fill-opacity="1" fill-rule="nonzero"/><g clip-path="url(#79fd8b0ed1)"><path fill="#b70200" d="M 592.53125 247.601562 C 591.320312 247.765625 589.953125 247.886719 588.4375 247.914062 C 589 241.65625 589.566406 235.402344 590.132812 229.144531 C 587.191406 230.308594 583.921875 231.535156 580.351562 232.769531 C 580.515625 241.019531 580.867188 266.144531 578.636719 291.4375 C 577.949219 299.238281 576.792969 309.582031 569.609375 319.410156 C 568.960938 320.296875 566.957031 322.96875 563.886719 325.796875 C 550.660156 337.976562 532.832031 339.089844 521.621094 339.789062 C 506.019531 340.765625 494.535156 337.910156 487.699219 336.148438 C 477.632812 333.558594 472.433594 332.152344 467.128906 327.566406 C 458.976562 320.515625 456.429688 311.019531 453.867188 301.445312 C 452.175781 295.121094 451.425781 289.691406 450.5625 276.992188 C 449.917969 267.445312 449.257812 254.613281 449.101562 239.242188 C 443.503906 237.90625 437.550781 236.269531 431.316406 234.257812 C 425.964844 232.527344 421.210938 230.777344 417.097656 229.144531 C 417.777344 235.394531 418.457031 241.644531 419.136719 247.890625 C 416.203125 247.777344 413.875 247.320312 412.214844 246.894531 C 411.707031 246.761719 410.722656 246.496094 409.480469 246.148438 L 406.585938 257.917969 C 407.492188 258.324219 408.417969 258.757812 409.351562 259.230469 C 414.257812 261.703125 418.199219 264.464844 421.210938 266.925781 C 423.195312 285.160156 425.183594 303.398438 427.171875 321.636719 C 427.90625 328.386719 432.292969 334.195312 438.589844 336.722656 C 453.765625 342.824219 476.660156 349.550781 504.933594 349.386719 C 532.945312 349.222656 555.585938 342.363281 570.632812 336.164062 C 576.917969 333.574219 581.234375 327.691406 581.84375 320.917969 C 583.457031 303.046875 585.074219 285.175781 586.6875 267.304688 C 588.203125 266.042969 589.96875 264.691406 591.992188 263.332031 L 592.53125 247.601562 " fill-opacity="1" fill-rule="nonzero"/></g><path fill="#3c3c3c" d="M 588.746094 231.457031 C 588.746094 239.304688 550.664062 245.664062 503.6875 245.664062 C 456.710938 245.664062 418.628906 239.304688 418.628906 231.457031 C 418.628906 223.613281 456.710938 217.253906 503.6875 217.253906 C 550.664062 217.253906 588.746094 223.613281 588.746094 231.457031 " fill-opacity="1" fill-rule="nonzero"/><g clip-path="url(#85d42f586d)"><g clip-path="url(#0b2297d8e6)"><path fill="#ff8822" d="M 566.132812 235.257812 C 565.640625 235.171875 565.242188 234.832031 565.042969 234.375 C 564.429688 232.980469 563.023438 232 561.386719 232 C 560.183594 232 559.109375 232.527344 558.378906 233.359375 C 558.054688 233.730469 557.5625 233.910156 557.070312 233.84375 C 555.214844 233.59375 553.300781 233.359375 551.324219 233.136719 C 550.921875 233.089844 550.5625 232.875 550.308594 232.558594 C 549.992188 232.164062 549.511719 231.898438 548.960938 231.875 C 548.488281 231.851562 548.050781 232.011719 547.714844 232.285156 C 547.402344 232.542969 547.007812 232.679688 546.605469 232.636719 C 546.273438 232.605469 545.945312 232.574219 545.613281 232.542969 C 545.203125 232.503906 544.824219 232.300781 544.574219 231.96875 C 544.207031 231.476562 543.628906 231.144531 542.964844 231.113281 L 542.828125 231.109375 C 542.195312 231.121094 541.625 230.757812 541.378906 230.175781 C 540.648438 228.433594 538.964844 227.179688 536.953125 227.085938 C 535.242188 227.007812 533.691406 227.789062 532.71875 229.054688 C 532.34375 229.542969 531.695312 229.734375 531.101562 229.550781 C 530.691406 229.421875 530.257812 229.34375 529.804688 229.320312 C 528.339844 229.253906 526.992188 229.808594 526.015625 230.75 C 525.730469 231.027344 525.335938 231.164062 524.9375 231.148438 C 518.144531 230.855469 511.027344 230.699219 503.6875 230.699219 C 491.457031 230.699219 479.828125 231.128906 469.316406 231.90625 C 468.617188 231.957031 467.960938 231.523438 467.769531 230.847656 C 467.246094 228.996094 465.546875 227.636719 463.527344 227.636719 C 461.945312 227.636719 460.558594 228.472656 459.777344 229.726562 C 459.460938 230.238281 458.867188 230.511719 458.269531 230.40625 C 458.023438 230.363281 457.765625 230.339844 457.507812 230.339844 C 455.792969 230.339844 454.304688 231.320312 453.578125 232.75 C 453.351562 233.195312 452.925781 233.507812 452.429688 233.566406 C 449.464844 233.941406 446.648438 234.347656 444.003906 234.785156 C 443.597656 234.851562 443.175781 234.753906 442.855469 234.492188 C 442.503906 234.210938 442.0625 234.039062 441.574219 234.039062 C 440.832031 234.039062 440.1875 234.4375 439.828125 235.03125 C 439.617188 235.386719 439.261719 235.628906 438.855469 235.707031 C 426.242188 238.1875 418.628906 241.394531 418.628906 244.902344 C 418.628906 252.75 456.710938 259.105469 503.6875 259.105469 C 550.664062 259.105469 588.746094 252.75 588.746094 244.902344 C 588.746094 241.179688 580.167969 237.792969 566.132812 235.257812 " fill-opacity="1" fill-rule="nonzero"/></g></g><g clip-path="url(#cf12a8619e)"><g clip-path="url(#860c6a8555)"><path fill="#ff4200" d="M 512.542969 253.023438 C 509.867188 253.03125 495.183594 253.105469 476.699219 250.039062 C 463.8125 247.894531 456.140625 245.402344 455.703125 241.628906 C 455.5625 240.394531 456.234375 239.402344 456.859375 238.511719 C 459.25 235.09375 463.894531 233.117188 481.746094 232.207031 C 489.175781 231.824219 491.335938 231.695312 498.285156 231.351562 C 499.597656 231.289062 505.402344 231.460938 508.964844 230.726562 C 507.21875 230.710938 505.460938 230.699219 503.6875 230.699219 C 491.457031 230.699219 479.828125 231.128906 469.316406 231.90625 C 468.617188 231.957031 467.960938 231.523438 467.769531 230.847656 C 467.246094 228.996094 465.546875 227.636719 463.527344 227.636719 C 461.945312 227.636719 460.558594 228.472656 459.777344 229.726562 C 459.460938 230.238281 458.867188 230.511719 458.269531 230.40625 C 458.023438 230.363281 457.765625 230.339844 457.507812 230.339844 C 455.792969 230.339844 454.304688 231.320312 453.578125 232.75 C 453.351562 233.195312 452.925781 233.507812 452.429688 233.566406 C 449.464844 233.941406 446.648438 234.347656 444.003906 234.785156 C 443.597656 234.851562 443.175781 234.753906 442.855469 234.492188 C 442.503906 234.210938 442.0625 234.039062 441.574219 234.039062 C 440.832031 234.039062 440.1875 234.4375 439.828125 235.03125 C 439.617188 235.386719 439.261719 235.628906 438.855469 235.707031 C 426.242188 238.1875 418.628906 241.394531 418.628906 244.902344 C 418.628906 252.75 456.710938 259.105469 503.6875 259.105469 C 525.714844 259.105469 545.78125 257.710938 560.890625 255.414062 C 553.617188 254.214844 536.945312 252.933594 512.542969 253.023438 " fill-opacity="1" fill-rule="nonzero"/></g></g><g clip-path="url(#611be677da)"><g clip-path="url(#190384af71)"><path fill="#ffbf10" d="M 488.648438 242.355469 C 488.648438 245.65625 511.429688 248.328125 539.53125 248.328125 C 562.902344 248.328125 582.589844 246.480469 588.558594 243.957031 C 587.835938 242.128906 585.046875 240.394531 580.574219 238.820312 C 571.3125 237.339844 556.375 236.378906 539.53125 236.378906 C 511.429688 236.378906 488.648438 239.054688 488.648438 242.355469 " fill-opacity="1" fill-rule="nonzero"/></g></g><path fill="#e5a2a2" d="M 503.6875 219.125 C 481.070312 219.125 459.816406 220.59375 443.851562 223.261719 C 436.167969 224.542969 430.164062 226.027344 426.003906 227.671875 C 421.660156 229.386719 420.503906 230.859375 420.503906 231.457031 C 420.503906 232.058594 421.660156 233.53125 426.003906 235.246094 C 430.164062 236.890625 436.167969 238.371094 443.851562 239.65625 C 459.816406 242.324219 481.070312 243.789062 503.6875 243.789062 C 526.308594 243.789062 547.558594 242.324219 563.523438 239.65625 C 571.207031 238.371094 577.214844 236.890625 581.375 235.246094 C 585.714844 233.53125 586.875 232.058594 586.875 231.457031 C 586.875 230.859375 585.714844 229.386719 581.375 227.671875 C 577.214844 226.027344 571.207031 224.542969 563.523438 223.261719 C 547.558594 220.59375 526.308594 219.125 503.6875 219.125 M 503.6875 247.535156 C 480.867188 247.535156 459.398438 246.046875 443.238281 243.347656 C 435.292969 242.023438 429.035156 240.46875 424.628906 238.730469 C 419.332031 236.636719 416.761719 234.261719 416.761719 231.457031 C 416.761719 228.65625 419.332031 226.277344 424.628906 224.1875 C 429.035156 222.449219 435.292969 220.894531 443.238281 219.566406 C 459.398438 216.867188 480.867188 215.382812 503.6875 215.382812 C 526.507812 215.382812 547.976562 216.867188 564.140625 219.566406 C 572.082031 220.894531 578.339844 222.449219 582.746094 224.1875 C 588.042969 226.277344 590.617188 228.65625 590.617188 231.457031 C 590.617188 234.261719 588.042969 236.636719 582.746094 238.730469 C 578.339844 240.46875 572.082031 242.023438 564.140625 243.347656 C 547.976562 246.046875 526.507812 247.535156 503.6875 247.535156 " fill-opacity="1" fill-rule="nonzero"/><path fill="#715f30" d="M 471.207031 231.769531 C 470.496094 229.96875 470.082031 227.855469 470.082031 225.59375 C 470.082031 224.691406 470.148438 223.816406 470.273438 222.972656 C 468.8125 222.4375 467.421875 221.628906 466.125 220.585938 C 471.9375 220.101562 478.070312 219.734375 484.425781 219.492188 C 485.117188 221.277344 485.519531 223.359375 485.519531 225.59375 C 485.519531 227.5625 485.207031 229.421875 484.65625 231.054688 C 480.019531 231.234375 475.523438 231.476562 471.207031 231.769531 " fill-opacity="1" fill-rule="nonzero"/><path fill="#ff971d" d="M 477.800781 237.472656 C 475.347656 237.472656 473.164062 235.710938 471.75 232.964844 C 474.519531 232.660156 477.8125 232.40625 481.746094 232.207031 C 482.660156 232.160156 483.496094 232.117188 484.269531 232.078125 C 482.890625 235.324219 480.511719 237.472656 477.800781 237.472656 " fill-opacity="1" fill-rule="nonzero"/><path fill="#ff6404" d="M 471.75 232.964844 C 471.554688 232.585938 471.375 232.1875 471.207031 231.769531 C 475.523438 231.476562 480.019531 231.234375 484.65625 231.054688 C 484.539062 231.40625 484.410156 231.746094 484.269531 232.078125 C 483.496094 232.117188 482.660156 232.160156 481.746094 232.207031 C 477.8125 232.40625 474.519531 232.660156 471.75 232.964844 " fill-opacity="1" fill-rule="nonzero"/><g clip-path="url(#8af737067a)"><path fill="#ffeebe" d="M 462.78125 217.117188 C 458.878906 212.011719 456.402344 204.394531 456.402344 195.890625 C 456.402344 185.777344 459.90625 176.921875 465.144531 172.046875 C 464.359375 169.351562 463.917969 166.367188 463.917969 163.21875 C 463.917969 162.960938 463.921875 162.703125 463.929688 162.445312 C 456.558594 161.832031 450.707031 152.441406 450.707031 140.945312 C 450.707031 129.050781 456.96875 119.414062 464.695312 119.414062 C 472.417969 119.414062 478.679688 129.050781 478.679688 140.945312 C 478.679688 141.203125 478.675781 141.460938 478.671875 141.71875 C 486.039062 142.332031 491.894531 151.726562 491.894531 163.21875 C 491.894531 167.703125 491.003906 171.863281 489.484375 175.308594 C 495.414062 176.660156 499.96875 184.527344 499.96875 194.035156 C 499.96875 203.898438 495.070312 211.996094 488.816406 212.886719 C 488.328125 213.859375 487.796875 214.78125 487.234375 215.644531 C 478.648438 215.925781 470.417969 216.421875 462.78125 217.117188 " fill-opacity="1" fill-rule="nonzero"/></g><path fill="#ecaa7a" d="M 466.125 220.585938 C 464.925781 219.621094 463.804688 218.453125 462.78125 217.117188 C 470.417969 216.421875 478.648438 215.925781 487.234375 215.644531 C 486.351562 216.996094 485.378906 218.207031 484.328125 219.253906 C 484.363281 219.332031 484.394531 219.414062 484.425781 219.492188 C 478.070312 219.734375 471.9375 220.101562 466.125 220.585938 " fill-opacity="1" fill-rule="nonzero"/><path fill="#715f30" d="M 446.261719 231.53125 C 443.980469 231.53125 441.996094 229.320312 440.972656 226.0625 C 440.914062 226.0625 440.859375 226.066406 440.804688 226.066406 C 439.515625 226.066406 438.304688 225.496094 437.253906 224.5 C 439.289062 224.066406 441.492188 223.65625 443.851562 223.261719 C 446.515625 222.816406 449.320312 222.40625 452.257812 222.03125 C 451.96875 227.359375 449.394531 231.53125 446.261719 231.53125 " fill-opacity="1" fill-rule="nonzero"/><path fill="#ffeebe" d="M 434.992188 221.160156 C 434.0625 219.078125 433.511719 216.480469 433.511719 213.664062 C 433.511719 207.128906 436.484375 201.777344 440.253906 201.296875 C 440.785156 198.007812 442.554688 195.585938 444.660156 195.585938 C 447.183594 195.585938 449.234375 199.070312 449.234375 203.363281 C 449.234375 205.734375 448.609375 207.855469 447.625 209.28125 C 447.742188 209.808594 447.84375 210.351562 447.917969 210.914062 C 449.9375 211.917969 451.53125 214.726562 452.078125 218.277344 C 448.984375 218.671875 446.03125 219.101562 443.238281 219.566406 C 440.246094 220.066406 437.496094 220.597656 434.992188 221.160156 " fill-opacity="1" fill-rule="nonzero"/><path fill="#ecaa7a" d="M 437.253906 224.5 C 436.371094 223.660156 435.601562 222.519531 434.992188 221.160156 C 437.496094 220.597656 440.246094 220.066406 443.238281 219.566406 C 446.03125 219.101562 448.984375 218.671875 452.078125 218.277344 C 452.214844 219.152344 452.289062 220.070312 452.289062 221.023438 C 452.289062 221.363281 452.277344 221.699219 452.257812 222.03125 C 449.320312 222.40625 446.515625 222.816406 443.851562 223.261719 C 441.492188 223.65625 439.289062 224.066406 437.253906 224.5 " fill-opacity="1" fill-rule="nonzero"/><path fill="#006d00" d="M 477.871094 235.6875 C 478.207031 235.429688 478.433594 234.984375 478.308594 234.582031 C 478.234375 234.34375 478.050781 234.15625 477.882812 233.96875 C 477.34375 233.371094 476.910156 232.679688 476.609375 231.9375 C 476.964844 232.175781 477.324219 232.417969 477.683594 232.660156 C 477.582031 232.3125 477.484375 231.964844 477.382812 231.613281 C 477.402344 231.695312 477.421875 231.777344 477.445312 231.855469 C 477.492188 231.617188 477.535156 231.378906 477.582031 231.136719 C 478.121094 231.601562 478.558594 232.179688 478.859375 232.824219 C 478.859375 231.84375 479.105469 230.867188 479.5625 230.003906 C 479.640625 230.441406 479.714844 230.878906 479.789062 231.316406 C 480.476562 230.578125 481.070312 229.75 481.546875 228.859375 C 481.558594 229.375 481.460938 229.890625 481.265625 230.367188 C 481.609375 230.148438 481.953125 229.925781 482.296875 229.707031 C 481.992188 230.265625 481.746094 230.855469 481.558594 231.464844 C 482.039062 231.382812 482.511719 231.226562 482.945312 231 C 482.320312 232.390625 481.632812 233.753906 480.886719 235.089844 C 481.574219 234.394531 482.265625 233.699219 482.957031 233.003906 C 483.378906 232.578125 483.800781 232.152344 484.125 231.644531 C 484.390625 231.226562 484.582031 230.757812 484.894531 230.375 C 485.207031 229.992188 485.699219 229.699219 486.183594 229.800781 C 485.84375 229.996094 485.570312 230.304688 485.414062 230.667969 C 485.792969 230.652344 486.167969 230.53125 486.492188 230.328125 C 486.1875 230.679688 485.925781 231.0625 485.703125 231.46875 C 486.433594 231.140625 487.195312 230.886719 487.976562 230.707031 C 487.539062 231.109375 487.105469 231.503906 486.667969 231.902344 C 487.195312 231.773438 487.753906 231.765625 488.285156 231.886719 C 488.039062 232.035156 487.792969 232.183594 487.542969 232.332031 C 487.945312 232.289062 488.421875 232.277344 488.671875 232.589844 C 487.921875 232.734375 487.171875 232.875 486.425781 233.015625 C 486.84375 233.359375 487.316406 233.628906 487.828125 233.820312 C 486.96875 233.746094 486.109375 233.675781 485.253906 233.601562 C 485.78125 233.835938 486.308594 234.070312 486.839844 234.304688 C 486.40625 234.382812 485.972656 234.460938 485.539062 234.539062 C 485.984375 234.625 486.402344 234.832031 486.734375 235.132812 C 484.878906 235.300781 483.003906 235.238281 481.164062 234.941406 C 482.515625 235.75 484.15625 235.871094 485.726562 235.96875 C 485.410156 236.1875 485.027344 236.304688 484.640625 236.300781 C 485.261719 236.339844 485.871094 236.535156 486.402344 236.859375 C 486.03125 236.917969 485.660156 236.976562 485.285156 237.039062 C 485.722656 237.132812 486.109375 237.4375 486.308594 237.839844 C 485.839844 237.914062 485.355469 237.867188 484.910156 237.703125 C 485.191406 238.015625 485.472656 238.328125 485.753906 238.640625 C 485.316406 238.535156 484.878906 238.429688 484.4375 238.320312 C 484.5625 238.644531 484.636719 238.988281 484.652344 239.332031 C 484.027344 238.972656 483.40625 238.613281 482.78125 238.253906 C 482.84375 238.871094 482.902344 239.484375 482.964844 240.101562 C 482.269531 239.765625 481.660156 239.25 481.207031 238.625 C 481.277344 238.878906 481.347656 239.136719 481.414062 239.394531 C 480.9375 239.132812 480.488281 238.824219 480.066406 238.480469 C 480.117188 238.992188 480.058594 239.515625 479.898438 240.003906 C 479.296875 239.601562 478.789062 239.050781 478.441406 238.417969 C 478.578125 238.777344 478.644531 239.15625 478.644531 239.539062 C 478.644531 238.90625 477.773438 237.746094 477.421875 237.230469 C 477.261719 236.992188 476.746094 236.558594 476.847656 236.261719 C 476.941406 235.976562 477.640625 235.867188 477.871094 235.6875 " fill-opacity="1" fill-rule="nonzero"/><path fill="#006d00" d="M 525.246094 234.113281 C 525.105469 234.375 525.246094 234.65625 525.726562 234.746094 C 526.011719 234.796875 526.371094 234.777344 526.710938 234.761719 C 527.796875 234.714844 528.851562 234.757812 529.816406 234.882812 C 529.226562 234.972656 528.636719 235.058594 528.046875 235.148438 C 528.453125 235.230469 528.859375 235.308594 529.265625 235.390625 C 529.171875 235.367188 529.082031 235.351562 528.992188 235.328125 C 529.148438 235.441406 529.304688 235.554688 529.460938 235.664062 C 528.488281 235.765625 527.519531 235.769531 526.644531 235.679688 C 527.484375 236.042969 528.066406 236.527344 528.316406 237.082031 C 527.859375 236.957031 527.40625 236.828125 526.949219 236.703125 C 526.847656 237.324219 526.925781 237.929688 527.179688 238.5 C 526.726562 238.3125 526.386719 238.070312 526.1875 237.796875 C 526.007812 238.050781 525.828125 238.304688 525.652344 238.558594 C 525.492188 238.199219 525.25 237.855469 524.933594 237.53125 C 524.488281 237.804688 524.117188 238.101562 523.847656 238.402344 C 523.320312 237.570312 522.882812 236.714844 522.539062 235.84375 C 522.398438 236.449219 522.257812 237.050781 522.117188 237.65625 C 522.03125 238.027344 521.941406 238.402344 522.035156 238.75 C 522.113281 239.039062 522.308594 239.308594 522.300781 239.609375 C 522.292969 239.910156 522.023438 240.265625 521.417969 240.46875 C 521.609375 240.226562 521.640625 239.972656 521.496094 239.757812 C 521.105469 239.957031 520.804688 240.1875 520.632812 240.425781 C 520.65625 240.144531 520.609375 239.867188 520.5 239.605469 C 520 240.09375 519.40625 240.570312 518.726562 241.027344 C 518.847656 240.65625 518.96875 240.292969 519.09375 239.925781 C 518.644531 240.238281 518.050781 240.519531 517.378906 240.742188 C 517.515625 240.5625 517.652344 240.382812 517.789062 240.203125 C 517.398438 240.421875 516.902344 240.664062 516.363281 240.671875 C 517.042969 240.242188 517.722656 239.816406 518.402344 239.390625 C 517.660156 239.472656 516.914062 239.605469 516.210938 239.789062 C 517.1875 239.386719 518.167969 238.984375 519.148438 238.582031 C 518.382812 238.761719 517.617188 238.9375 516.851562 239.113281 C 517.246094 238.867188 517.640625 238.621094 518.035156 238.378906 C 517.492188 238.566406 516.867188 238.699219 516.25 238.753906 C 518.085938 237.761719 520.148438 236.847656 522.363281 236.039062 C 520.226562 236.410156 518.371094 237.1875 516.605469 237.9375 C 516.757812 237.695312 517.070312 237.460938 517.484375 237.269531 C 516.789062 237.5625 515.96875 237.796875 515.121094 237.941406 C 515.46875 237.734375 515.816406 237.527344 516.160156 237.316406 C 515.613281 237.5 514.9375 237.578125 514.382812 237.527344 C 514.816406 237.265625 515.375 237.042969 515.988281 236.878906 C 515.421875 236.902344 514.855469 236.929688 514.285156 236.953125 C 514.84375 236.773438 515.40625 236.59375 515.964844 236.410156 C 515.554688 236.355469 515.183594 236.261719 514.871094 236.140625 C 515.847656 235.964844 516.816406 235.789062 517.792969 235.609375 C 517.199219 235.410156 516.605469 235.210938 516.011719 235.011719 C 517.042969 234.789062 518.136719 234.675781 519.15625 234.683594 C 518.863281 234.621094 518.570312 234.5625 518.273438 234.5 C 519.011719 234.363281 519.753906 234.25 520.5 234.164062 C 520.007812 234 519.617188 233.777344 519.375 233.511719 C 520.363281 233.363281 521.371094 233.316406 522.292969 233.375 C 521.839844 233.308594 521.4375 233.203125 521.109375 233.0625 C 521.65625 233.296875 523.582031 233.296875 524.398438 233.308594 C 524.777344 233.320312 525.699219 233.222656 525.847656 233.382812 C 525.992188 233.539062 525.339844 233.929688 525.246094 234.113281 " fill-opacity="1" fill-rule="nonzero"/><path fill="#006d00" d="M 552.5625 224.039062 C 552.722656 224.429688 553.09375 224.765625 553.515625 224.746094 C 553.769531 224.734375 553.996094 224.605469 554.21875 224.492188 C 554.9375 224.125 555.714844 223.882812 556.511719 223.78125 C 556.1875 224.066406 555.859375 224.347656 555.535156 224.632812 C 555.898438 224.625 556.261719 224.621094 556.625 224.609375 C 556.539062 224.609375 556.457031 224.609375 556.375 224.609375 C 556.59375 224.714844 556.8125 224.820312 557.03125 224.925781 C 556.445312 225.328125 555.773438 225.605469 555.074219 225.730469 C 556.019531 225.980469 556.902344 226.46875 557.617188 227.132812 C 557.175781 227.09375 556.734375 227.054688 556.292969 227.015625 C 556.828125 227.867188 557.476562 228.652344 558.214844 229.34375 C 557.714844 229.222656 557.242188 228.996094 556.832031 228.6875 C 556.953125 229.074219 557.082031 229.464844 557.203125 229.851562 C 556.742188 229.417969 556.234375 229.023438 555.695312 228.683594 C 555.652344 229.175781 555.683594 229.667969 555.789062 230.148438 C 554.605469 229.183594 553.464844 228.171875 552.367188 227.109375 C 552.863281 227.953125 553.355469 228.796875 553.847656 229.644531 C 554.152344 230.160156 554.457031 230.679688 554.863281 231.121094 C 555.199219 231.484375 555.601562 231.789062 555.890625 232.191406 C 556.179688 232.59375 556.339844 233.144531 556.117188 233.589844 C 556.015625 233.207031 555.785156 232.859375 555.476562 232.617188 C 555.394531 232.992188 555.414062 233.382812 555.527344 233.75 C 555.265625 233.367188 554.964844 233.011719 554.628906 232.691406 C 554.757812 233.484375 554.808594 234.285156 554.78125 235.085938 C 554.507812 234.5625 554.234375 234.039062 553.960938 233.515625 C 553.953125 234.058594 553.8125 234.601562 553.5625 235.082031 C 553.480469 234.804688 553.398438 234.527344 553.320312 234.253906 C 553.261719 234.648438 553.152344 235.113281 552.78125 235.273438 C 552.835938 234.515625 552.894531 233.753906 552.949219 232.992188 C 552.511719 233.308594 552.125 233.703125 551.808594 234.144531 C 552.101562 233.332031 552.394531 232.519531 552.683594 231.710938 C 552.320312 232.160156 551.957031 232.613281 551.597656 233.0625 C 551.632812 232.625 551.667969 232.1875 551.703125 231.75 C 551.507812 232.15625 551.199219 232.503906 550.824219 232.75 C 551.136719 230.914062 551.679688 229.117188 552.4375 227.414062 C 551.308594 228.515625 550.773438 230.070312 550.269531 231.5625 C 550.144531 231.199219 550.128906 230.796875 550.230469 230.425781 C 550.03125 231.015625 549.691406 231.558594 549.238281 231.984375 C 549.277344 231.613281 549.316406 231.238281 549.355469 230.863281 C 549.152344 231.261719 548.757812 231.558594 548.320312 231.644531 C 548.367188 231.171875 548.535156 230.714844 548.804688 230.328125 C 548.433594 230.519531 548.058594 230.710938 547.6875 230.902344 C 547.898438 230.507812 548.117188 230.109375 548.332031 229.710938 C 547.988281 229.75 547.640625 229.730469 547.300781 229.660156 C 547.808594 229.148438 548.3125 228.636719 548.820312 228.125 C 548.210938 228.03125 547.597656 227.929688 546.988281 227.832031 C 547.496094 227.246094 548.144531 226.789062 548.867188 226.511719 C 548.601562 226.511719 548.335938 226.511719 548.070312 226.511719 C 548.449219 226.121094 548.859375 225.761719 549.300781 225.445312 C 548.789062 225.359375 548.300781 225.171875 547.871094 224.890625 C 548.414062 224.410156 549.074219 224.066406 549.777344 223.886719 C 549.398438 223.925781 549.011719 223.898438 548.640625 223.800781 C 549.253906 223.960938 550.597656 223.417969 551.1875 223.210938 C 551.460938 223.113281 552.007812 222.726562 552.269531 222.898438 C 552.523438 223.066406 552.449219 223.769531 552.5625 224.039062 " fill-opacity="1" fill-rule="nonzero"/></svg>