<svg width="195" height="41" viewBox="0 0 195 41" fill="none" xmlns="http://www.w3.org/2000/svg">
<path d="M35.8318 0.5C24.3278 0.5 15 9.45536 15 20.5C15 31.5446 24.3278 40.5 35.8318 40.5C47.3359 40.5 56.6637 31.5446 56.6637 20.5C56.6637 9.45536 47.3359 0.5 35.8318 0.5ZM45.8432 15.5759C45.8572 15.7857 45.8572 16.0045 45.8572 16.2188C45.8572 22.7723 40.6585 30.3214 31.1586 30.3214C28.2292 30.3214 25.5136 29.5045 23.2258 28.0982C23.6443 28.1429 24.0442 28.1607 24.472 28.1607C26.89 28.1607 29.1126 27.375 30.8843 26.0446C28.6151 26 26.7086 24.5714 26.0576 22.6071C26.8528 22.7188 27.5689 22.7188 28.3872 22.5179C27.2188 22.29 26.1686 21.6807 25.4151 20.7937C24.6615 19.9066 24.251 18.7965 24.2534 17.6518V17.5893C24.937 17.9598 25.7414 18.1875 26.5831 18.2188C25.8755 17.766 25.2953 17.1527 24.8938 16.4332C24.4923 15.7136 24.2819 14.9101 24.2813 14.0938C24.2813 13.1696 24.5324 12.3259 24.9835 11.5938C26.2804 13.1265 27.8987 14.3801 29.7332 15.2731C31.5678 16.166 33.5776 16.6784 35.6319 16.7768C34.9019 13.4063 37.5244 10.6786 40.6771 10.6786C42.1651 10.6786 43.5043 11.2768 44.4482 12.2411C45.6154 12.0312 46.7314 11.6116 47.7265 11.0491C47.3405 12.1964 46.5314 13.1652 45.4573 13.7768C46.4989 13.6696 47.5033 13.3929 48.4333 13.0045C47.7311 13.9955 46.8523 14.875 45.8432 15.5759Z" fill="white"/>
<path d="M118.332 20.6225C118.332 9.50887 109.006 0.5 97.5027 0.5C85.9945 0.5025 76.6682 9.50888 76.6682 20.625C76.6682 30.6662 84.2865 38.9902 94.2429 40.5V26.4393H88.9575V20.625H94.2481V16.188C94.2481 11.1462 97.3595 8.36152 102.116 8.36152C104.397 8.36152 106.779 8.75397 106.779 8.75397V13.7034H104.152C101.567 13.7034 100.76 15.2557 100.76 16.848V20.6225H106.535L105.613 26.4368H100.757V40.4975C110.714 38.9877 118.332 30.6637 118.332 20.6225Z" fill="white"/>
<path d="M159.168 0.5C153.515 0.5 152.804 0.525 150.583 0.62C148.362 0.72 146.849 1.055 145.523 1.55C144.133 2.05205 142.874 2.83957 141.833 3.8575C140.774 4.85674 139.954 6.0656 139.43 7.4C138.914 8.67 138.563 10.125 138.461 12.25C138.362 14.3875 138.336 15.0675 138.336 20.5025C138.336 25.9325 138.362 26.6125 138.461 28.745C138.565 30.875 138.914 32.3275 139.43 33.6C139.964 34.915 140.675 36.03 141.833 37.1425C142.99 38.255 144.151 38.94 145.521 39.45C146.849 39.945 148.359 40.2825 150.578 40.38C152.801 40.475 153.51 40.5 159.168 40.5C164.827 40.5 165.532 40.475 167.756 40.38C169.972 40.28 171.49 39.945 172.816 39.45C174.205 38.9477 175.463 38.1602 176.503 37.1425C177.662 36.03 178.373 34.915 178.906 33.6C179.419 32.3275 179.771 30.875 179.875 28.745C179.974 26.6125 180 25.9325 180 20.5C180 15.0675 179.974 14.3875 179.875 12.2525C179.771 10.125 179.419 8.67 178.906 7.4C178.383 6.06556 177.563 4.85669 176.503 3.8575C175.463 2.83919 174.204 2.05161 172.813 1.55C171.485 1.055 169.969 0.7175 167.753 0.62C165.53 0.525 164.824 0.5 159.163 0.5H159.171H159.168ZM157.301 4.1025C157.301 4.10388 157.302 4.105 157.304 4.105H159.171C164.733 4.105 165.392 4.1225 167.587 4.22C169.618 4.3075 170.722 4.635 171.456 4.9075C172.428 5.27 173.123 5.705 173.852 6.405C174.581 7.105 175.032 7.77 175.409 8.705C175.696 9.4075 176.034 10.4675 176.125 12.4175C176.227 14.525 176.248 15.1575 176.248 20.495C176.248 25.8325 176.227 26.4675 176.125 28.575C176.034 30.525 175.693 31.5825 175.409 32.2875C175.075 33.1559 174.542 33.9411 173.849 34.585C173.12 35.285 172.428 35.7175 171.454 36.08C170.725 36.355 169.621 36.68 167.587 36.77C165.392 36.865 164.733 36.8875 159.171 36.8875C153.609 36.8875 152.947 36.865 150.752 36.77C148.721 36.68 147.619 36.355 146.885 36.08C145.98 35.7598 145.162 35.2489 144.49 34.585C143.796 33.9401 143.262 33.1541 142.927 32.285C142.643 31.5825 142.302 30.5225 142.211 28.5725C142.112 26.465 142.091 25.8325 142.091 20.49C142.091 15.15 142.112 14.52 142.211 12.4125C142.305 10.4625 142.643 9.4025 142.93 8.6975C143.307 7.765 143.76 7.0975 144.49 6.3975C145.219 5.6975 145.911 5.265 146.885 4.9025C147.619 4.6275 148.721 4.3025 150.752 4.2125C152.673 4.12752 153.418 4.10251 157.299 4.1C157.3 4.1 157.301 4.10112 157.301 4.1025ZM170.29 7.425C169.961 7.425 169.636 7.48708 169.333 7.60769C169.03 7.7283 168.754 7.90508 168.522 8.12794C168.29 8.3508 168.106 8.61538 167.98 8.90656C167.855 9.19774 167.79 9.50983 167.79 9.825C167.79 10.1402 167.855 10.4523 167.98 10.7434C168.106 11.0346 168.29 11.2992 168.522 11.5221C168.754 11.7449 169.03 11.9217 169.333 12.0423C169.636 12.1629 169.961 12.225 170.29 12.225C170.953 12.225 171.589 11.9721 172.057 11.5221C172.526 11.072 172.79 10.4615 172.79 9.825C172.79 9.18848 172.526 8.57803 172.057 8.12794C171.589 7.67786 170.953 7.425 170.29 7.425ZM159.171 10.23C157.752 10.2087 156.343 10.4587 155.025 10.9654C153.708 11.472 152.509 12.2252 151.497 13.1811C150.486 14.1369 149.683 15.2764 149.135 16.5331C148.586 17.7899 148.304 19.1388 148.304 20.5012C148.304 21.8637 148.586 23.2126 149.135 24.4693C149.683 25.7261 150.486 26.8656 151.497 27.8214C152.509 28.7773 153.708 29.5305 155.025 30.0371C156.343 30.5438 157.752 30.7938 159.171 30.7725C161.979 30.7304 164.658 29.6298 166.628 27.7081C168.599 25.7865 169.704 23.1979 169.704 20.5012C169.704 17.8046 168.599 15.216 166.628 13.2944C164.658 11.3727 161.979 10.2721 159.171 10.23ZM159.171 13.8325C161.013 13.8325 162.779 14.535 164.081 15.7854C165.384 17.0358 166.116 18.7317 166.116 20.5C166.116 22.2683 165.384 23.9642 164.081 25.2146C162.779 26.465 161.013 27.1675 159.171 27.1675C157.329 27.1675 155.562 26.465 154.26 25.2146C152.958 23.9642 152.226 22.2683 152.226 20.5C152.226 18.7317 152.958 17.0358 154.26 15.7854C155.562 14.535 157.329 13.8325 159.171 13.8325Z" fill="white"/>
</svg>
