<svg width="25" height="26" viewBox="0 0 25 26" fill="none" xmlns="http://www.w3.org/2000/svg">
<g id="ChevronRight">
<path id="Vector-Chevronright" d="M15.3876 13.0002L6.88099 21.328L6.88096 21.3281C6.63857 21.5654 6.50041 21.8896 6.50041 22.2299C6.50041 22.5702 6.63857 22.8944 6.88096 23.1317C7.123 23.3687 7.44907 23.5 7.78692 23.5C8.12476 23.5 8.45083 23.3687 8.69287 23.1317L18.1186 13.9025C18.2388 13.7851 18.3347 13.645 18.4004 13.4901C18.4661 13.3351 18.5 13.1686 18.5 13.0002C18.5 12.8318 18.4661 12.6653 18.4004 12.5103C18.3347 12.3554 18.2388 12.2154 18.1186 12.098C18.1186 12.098 18.1186 12.098 18.1186 12.098L8.69332 2.86915C8.69324 2.86906 8.69315 2.86898 8.69306 2.8689C8.57324 2.75134 8.43149 2.65861 8.27619 2.59551C8.12079 2.53237 7.95456 2.5 7.78692 2.5C7.61928 2.5 7.45304 2.53237 7.29765 2.59551C7.14243 2.65857 7.00075 2.75124 6.88096 2.86871C6.76098 2.98601 6.6652 3.12589 6.59962 3.28063C6.53395 3.43559 6.5 3.6021 6.5 3.77052C6.5 3.93893 6.53395 4.10544 6.59962 4.2604C6.66522 4.41521 6.76106 4.55514 6.88112 4.67248C6.88122 4.67258 6.88132 4.67267 6.88142 4.67277L15.3876 13.0002Z" fill="#350503" stroke="#350503"/>
</g>
</svg>
