<svg width="25" height="26" viewBox="0 0 25 26" fill="none" xmlns="http://www.w3.org/2000/svg">
<path d="M9.61337 12.9998L18.12 4.672C18.3624 4.4347 18.5006 4.1104 18.5006 3.77009C18.5006 3.42979 18.3624 3.10559 18.12 2.86829C17.878 2.63129 17.5519 2.49999 17.2141 2.49999C16.8762 2.49999 16.5501 2.63129 16.3081 2.86829L6.88237 12.0975C6.76217 12.2149 6.66627 12.355 6.60057 12.5099C6.53487 12.6649 6.50097 12.8314 6.50097 12.9998C6.50097 13.1682 6.53487 13.3347 6.60057 13.4897C6.66627 13.6446 6.76217 13.7846 6.88237 13.902L16.3077 23.1308C16.3076 23.1308 16.3077 23.1309 16.3077 23.1308C16.4275 23.2484 16.5695 23.3414 16.7248 23.4045C16.8802 23.4676 17.0464 23.5 17.2141 23.5C17.3817 23.5 17.5479 23.4676 17.7033 23.4045C17.8585 23.3414 18.0002 23.2488 18.12 23.1313C18.24 23.014 18.3358 22.8741 18.4014 22.7194C18.467 22.5644 18.501 22.3979 18.501 22.2295C18.501 22.0611 18.467 21.8946 18.4014 21.7396C18.3358 21.5848 18.2399 21.4449 18.1199 21.3275C18.12 21.3276 18.1198 21.3274 18.1199 21.3275L9.61337 12.9998Z" fill="#350503"/>
<path d="M16.3077 23.1308L6.88237 13.902C6.76217 13.7846 6.66627 13.6446 6.60057 13.4897C6.53487 13.3347 6.50097 13.1682 6.50097 12.9998C6.50097 12.8314 6.53487 12.6649 6.60057 12.5099C6.66627 12.355 6.76217 12.2149 6.88237 12.0975L16.3081 2.86829C16.5501 2.63129 16.8762 2.49999 17.2141 2.49999C17.5519 2.49999 17.878 2.63129 18.12 2.86829C18.3624 3.10559 18.5006 3.42979 18.5006 3.77009C18.5006 4.1104 18.3624 4.4347 18.12 4.672L9.61337 12.9998L18.1199 21.3275M16.3077 23.1308C16.3077 23.1309 16.3076 23.1308 16.3077 23.1308ZM16.3077 23.1308C16.4275 23.2484 16.5695 23.3414 16.7248 23.4045C16.8802 23.4676 17.0464 23.5 17.2141 23.5C17.3817 23.5 17.5479 23.4676 17.7033 23.4045C17.8585 23.3414 18.0002 23.2488 18.12 23.1313C18.24 23.014 18.3358 22.8741 18.4014 22.7194C18.467 22.5644 18.501 22.3979 18.501 22.2295C18.501 22.0611 18.467 21.8946 18.4014 21.7396C18.3358 21.5848 18.2399 21.4449 18.1199 21.3275M18.1199 21.3275C18.1198 21.3274 18.12 21.3276 18.1199 21.3275Z" stroke="#350503"/>
</svg>
