<svg width="25" height="26" viewBox="0 0 25 26" fill="none" xmlns="http://www.w3.org/2000/svg">
<path d="M12.5 13C14.1576 13 15.7473 12.3415 16.9194 11.1694C18.0915 9.99731 18.75 8.4076 18.75 6.75C18.75 5.0924 18.0915 3.50269 16.9194 2.33058C15.7473 1.15848 14.1576 0.5 12.5 0.5C10.8424 0.5 9.25268 1.15848 8.08058 2.33058C6.90848 3.50269 6.25 5.0924 6.25 6.75C6.25 8.4076 6.90848 9.99731 8.08058 11.1694C9.25268 12.3415 10.8424 13 12.5 13ZM16.6667 6.75C16.6667 7.85507 16.2277 8.91488 15.4463 9.69628C14.6649 10.4777 13.6051 10.9167 12.5 10.9167C11.3949 10.9167 10.3351 10.4777 9.55372 9.69628C8.77232 8.91488 8.33333 7.85507 8.33333 6.75C8.33333 5.64493 8.77232 4.58512 9.55372 3.80372C10.3351 3.02232 11.3949 2.58333 12.5 2.58333C13.6051 2.58333 14.6649 3.02232 15.4463 3.80372C16.2277 4.58512 16.6667 5.64493 16.6667 6.75ZM25 23.4167C25 25.5 22.9167 25.5 22.9167 25.5H2.08333C2.08333 25.5 0 25.5 0 23.4167C0 21.3333 2.08333 15.0833 12.5 15.0833C22.9167 15.0833 25 21.3333 25 23.4167ZM22.9167 23.4083C22.9146 22.8958 22.5958 21.3542 21.1833 19.9417C19.825 18.5833 17.2687 17.1667 12.5 17.1667C7.72917 17.1667 5.175 18.5833 3.81667 19.9417C2.40417 21.3542 2.0875 22.8958 2.08333 23.4083H22.9167Z" fill="white"/>
</svg>
