<svg width="96" height="86" viewBox="0 0 96 86" fill="none" xmlns="http://www.w3.org/2000/svg">
<g clip-path="url(#clip0_76_157)">
<rect x="-0.00756836" width="95.4358" height="85.4902" rx="42.7451" fill="#350503"/>
<path d="M95.4287 43.0064C95.4287 19.2508 74.063 -0.00582886 47.7108 -0.00582886C21.3466 -0.00048572 -0.019043 19.2508 -0.019043 43.0118C-0.019043 64.4752 17.4338 82.2678 40.2429 85.4951V55.4399H28.1345V43.0118H40.2549V33.5277C40.2549 22.7506 47.3827 16.7983 58.2803 16.7983C63.5054 16.7983 68.9631 17.6372 68.9631 17.6372V28.2166H62.9447C57.0217 28.2166 55.1727 31.5347 55.1727 34.9383V43.0064H68.4024L66.2909 55.4346H55.1667V85.4897C77.9758 82.2625 95.4287 64.4698 95.4287 43.0064Z" fill="white"/>
</g>
<defs>
<clipPath id="clip0_76_157">
<rect x="-0.00756836" width="95.4358" height="85.4902" rx="42.7451" fill="white"/>
</clipPath>
</defs>
</svg>
