<svg width="25" height="26" viewBox="0 0 25 26" fill="none" xmlns="http://www.w3.org/2000/svg">
<path d="M6.90587 2.43261C7.0248 2.3135 7.16603 2.21899 7.32149 2.15448C7.47715 2.08989 7.64402 2.05664 7.81255 2.05664C7.98108 2.05664 8.14796 2.08989 8.30361 2.15448C8.45915 2.21902 8.60043 2.31358 8.71939 2.43277C8.71949 2.43286 8.71958 2.43296 8.71968 2.43306L18.0938 11.8072L6.90587 2.43261ZM6.90587 2.43261C6.78677 2.55153 6.69226 2.69276 6.62775 2.84823C6.56315 3.00389 6.52991 3.17076 6.52991 3.33929C6.52991 3.50781 6.56315 3.67469 6.62775 3.83035C6.69229 3.9859 6.78688 4.1272 6.90608 4.24617C6.90616 4.24625 6.90624 4.24633 6.90632 4.24641L15.3757 12.7143M6.90587 2.43261L15.3757 12.7143M15.3757 12.7143L6.90591 21.1826L6.90587 21.1826C6.66541 21.4231 6.53032 21.7492 6.53032 22.0893C6.53032 22.4294 6.66541 22.7555 6.90587 22.996C7.14634 23.2364 7.47249 23.3715 7.81255 23.3715C8.15262 23.3715 8.47876 23.2364 8.71923 22.996L18.0938 13.6214L15.3757 12.7143ZM18.3724 12.2232C18.3078 12.0678 18.2133 11.9265 18.0942 11.8076V13.621C18.2133 13.502 18.3078 13.3608 18.3724 13.2053C18.437 13.0497 18.4702 12.8828 18.4702 12.7143C18.4702 12.5458 18.437 12.3789 18.3724 12.2232Z" fill="#350503" stroke="#350503"/>
</svg>
