<svg width="25" height="26" viewBox="0 0 25 26" fill="none" xmlns="http://www.w3.org/2000/svg">
<path d="M6.90587 2.8612C7.0248 2.74209 7.16603 2.64758 7.32149 2.58307C7.47715 2.51848 7.64402 2.48523 7.81255 2.48523C7.98108 2.48523 8.14796 2.51848 8.30361 2.58307C8.45915 2.64761 8.60043 2.74217 8.71939 2.86135C8.71949 2.86145 8.71958 2.86155 8.71968 2.86165L18.0938 12.2358L6.90587 2.8612ZM6.90587 2.8612C6.78677 2.98012 6.69226 3.12135 6.62775 3.27681C6.56315 3.43248 6.52991 3.59935 6.52991 3.76788C6.52991 3.9364 6.56315 4.10328 6.62775 4.25894C6.69229 4.41449 6.78688 4.55579 6.90608 4.67476C6.90616 4.67484 6.90624 4.67492 6.90632 4.675L15.3757 13.1429M6.90587 2.8612L15.3757 13.1429M15.3757 13.1429L6.90591 21.6112L6.90587 21.6112C6.66541 21.8517 6.53032 22.1778 6.53032 22.5179C6.53032 22.8579 6.66541 23.1841 6.90587 23.4246C7.14634 23.665 7.47249 23.8001 7.81255 23.8001C8.15262 23.8001 8.47876 23.665 8.71923 23.4246L18.0938 14.05L15.3757 13.1429ZM18.3724 12.6518C18.3078 12.4964 18.2133 12.3551 18.0942 12.2362V14.0496C18.2133 13.9306 18.3078 13.7894 18.3724 13.6339C18.437 13.4783 18.4702 13.3114 18.4702 13.1429C18.4702 12.9743 18.437 12.8075 18.3724 12.6518Z" fill="#350503" stroke="#350503"/>
</svg>
